<svg width="16" height="16" viewBox="0 0 16 16" xmlns="http://www.w3.org/2000/svg">
<g>
<path fill-rule="evenodd" clip-rule="evenodd" d="M13.5885 14.8319C14.4088 15.0338 15.2762 14.9015 16 14.4642L14.4309 11.8645C14.4041 11.8011 14.373 11.7389 14.3373 11.678L9.81589 3.95774C9.75568 3.81302 9.6845 3.67213 9.60253 3.53633C9.16631 2.81358 8.46043 2.29414 7.64017 2.09228C6.81991 1.89043 5.95247 2.02268 5.22867 2.45996L6.79701 5.05846C6.82388 5.12209 6.85515 5.18465 6.89092 5.24573L11.4132 12.9674C11.4733 13.1118 11.5443 13.2523 11.6261 13.3879C12.0624 14.1106 12.7682 14.6301 13.5885 14.8319ZM8.87866 14.8333C9.69891 15.0351 10.5664 14.9029 11.2902 14.4656L9.72181 11.8671C9.69485 11.8031 9.66345 11.7403 9.6275 11.6789L5.11433 3.97272C5.05543 3.83015 4.98608 3.69127 4.90645 3.55731C4.47376 2.8294 3.77305 2.30593 2.95846 2.10204C2.48238 1.98288 1.9833 1.97744 1.50932 2.08162C0.668176 2.12952 0.000850153 2.8268 0.000850153 3.67993V11.5641C0.000283987 11.5887 0 11.6133 0 11.6379C0 12.4862 0.337341 13.2998 0.937813 13.8997C1.53828 14.4996 2.3527 14.8366 3.20189 14.8366V11.6573C3.20246 11.6398 3.20274 11.6223 3.20274 11.6047V7.90116C2.94251 7.48028 2.6333 6.93358 2.31776 6.32744C1.58419 4.91826 1.09423 3.72139 1.2234 3.65415C1.23514 3.64803 1.2516 3.65147 1.27236 3.66382L1.2743 3.66709C1.48575 3.80026 2.12081 4.81137 2.78378 6.08493C3.00603 6.51185 3.20591 6.91929 3.37299 7.28173L6.70255 12.9669C6.76285 13.1119 6.83416 13.2531 6.91629 13.3892C7.35251 14.112 8.0584 14.6314 8.87866 14.8333Z" fill="#a7aaad"/>
</g>
</svg>
